<mxfile host="app.diagrams.net" agent="Mozilla/5.0 (Macintosh; Intel Mac OS X 10_15_7) AppleWebKit/537.36 (KHTML, like Gecko) Chrome/128.0.0.0 Safari/537.36" version="26.0.5">
  <diagram name="Page-1" id="bOVUaEaNjyVzjH5R86AD">
    <mxGraphModel dx="1050" dy="643" grid="1" gridSize="10" guides="1" tooltips="1" connect="1" arrows="1" fold="1" page="1" pageScale="1" pageWidth="850" pageHeight="1100" math="0" shadow="0">
      <root>
        <mxCell id="0" />
        <mxCell id="1" parent="0" />
        <mxCell id="DycGgh1v0Zbwr9p_19RP-21" value="" style="rounded=1;whiteSpace=wrap;html=1;fillColor=none;strokeColor=#82b366;strokeWidth=3;" vertex="1" parent="1">
          <mxGeometry x="220" y="60" width="470" height="400" as="geometry" />
        </mxCell>
        <mxCell id="DycGgh1v0Zbwr9p_19RP-1" value="&lt;font style=&quot;font-size: 10px;&quot;&gt;用户&lt;/font&gt;" style="shape=umlActor;verticalLabelPosition=bottom;verticalAlign=top;html=1;outlineConnect=0;fillColor=none;strokeColor=#007FFF;strokeWidth=2;" vertex="1" parent="1">
          <mxGeometry x="140" y="260" width="30" height="60" as="geometry" />
        </mxCell>
        <mxCell id="DycGgh1v0Zbwr9p_19RP-2" value="" style="rounded=1;whiteSpace=wrap;html=1;fillColor=none;strokeColor=#007FFF;strokeWidth=2;" vertex="1" parent="1">
          <mxGeometry x="240" y="140" width="240" height="280" as="geometry" />
        </mxCell>
        <mxCell id="DycGgh1v0Zbwr9p_19RP-3" value="&lt;span style=&quot;text-align: start; font-family: DengXian;&quot; lang=&quot;ZH-CN&quot;&gt;&lt;font style=&quot;font-size: 11px;&quot;&gt;超长波科学数据处理分系统&lt;/font&gt;&lt;/span&gt;&lt;span style=&quot;text-align: start;&quot;&gt;&lt;/span&gt;" style="text;html=1;align=center;verticalAlign=middle;whiteSpace=wrap;rounded=0;fontSize=10;" vertex="1" parent="1">
          <mxGeometry x="280" y="153" width="160" height="30" as="geometry" />
        </mxCell>
        <mxCell id="DycGgh1v0Zbwr9p_19RP-4" style="edgeStyle=orthogonalEdgeStyle;rounded=0;orthogonalLoop=1;jettySize=auto;html=1;exitX=0.5;exitY=1;exitDx=0;exitDy=0;entryX=0.5;entryY=0;entryDx=0;entryDy=0;" edge="1" parent="1" source="DycGgh1v0Zbwr9p_19RP-5" target="DycGgh1v0Zbwr9p_19RP-7">
          <mxGeometry relative="1" as="geometry" />
        </mxCell>
        <mxCell id="DycGgh1v0Zbwr9p_19RP-5" value="数据处理管线(Pipeline)" style="ellipse;whiteSpace=wrap;html=1;fillColor=#dae8fc;strokeColor=#6c8ebf;" vertex="1" parent="1">
          <mxGeometry x="270" y="193" width="180" height="30" as="geometry" />
        </mxCell>
        <mxCell id="DycGgh1v0Zbwr9p_19RP-6" style="edgeStyle=orthogonalEdgeStyle;rounded=0;orthogonalLoop=1;jettySize=auto;html=1;exitX=0.5;exitY=1;exitDx=0;exitDy=0;entryX=0.5;entryY=0;entryDx=0;entryDy=0;" edge="1" parent="1" source="DycGgh1v0Zbwr9p_19RP-7" target="DycGgh1v0Zbwr9p_19RP-9">
          <mxGeometry relative="1" as="geometry" />
        </mxCell>
        <mxCell id="DycGgh1v0Zbwr9p_19RP-7" value="射频干扰检测与减除软件" style="ellipse;whiteSpace=wrap;html=1;fillColor=#dae8fc;strokeColor=#6c8ebf;" vertex="1" parent="1">
          <mxGeometry x="270" y="243" width="180" height="30" as="geometry" />
        </mxCell>
        <mxCell id="DycGgh1v0Zbwr9p_19RP-8" style="edgeStyle=orthogonalEdgeStyle;rounded=0;orthogonalLoop=1;jettySize=auto;html=1;exitX=0.5;exitY=1;exitDx=0;exitDy=0;entryX=0.5;entryY=0;entryDx=0;entryDy=0;" edge="1" parent="1" source="DycGgh1v0Zbwr9p_19RP-9" target="DycGgh1v0Zbwr9p_19RP-10">
          <mxGeometry relative="1" as="geometry" />
        </mxCell>
        <mxCell id="DycGgh1v0Zbwr9p_19RP-9" value="DSL频谱数据分析软件" style="ellipse;whiteSpace=wrap;html=1;fillColor=#dae8fc;strokeColor=#6c8ebf;" vertex="1" parent="1">
          <mxGeometry x="270" y="293" width="180" height="30" as="geometry" />
        </mxCell>
        <mxCell id="DycGgh1v0Zbwr9p_19RP-10" value="DSL低频阵列大视场干涉&lt;div&gt;成像软件&lt;/div&gt;" style="ellipse;whiteSpace=wrap;html=1;fillColor=#dae8fc;strokeColor=#6c8ebf;" vertex="1" parent="1">
          <mxGeometry x="270" y="343" width="180" height="40" as="geometry" />
        </mxCell>
        <mxCell id="DycGgh1v0Zbwr9p_19RP-13" value="" style="endArrow=classic;html=1;rounded=0;entryX=1;entryY=0.5;entryDx=0;entryDy=0;" edge="1" parent="1" target="DycGgh1v0Zbwr9p_19RP-5">
          <mxGeometry width="50" height="50" relative="1" as="geometry">
            <mxPoint x="540" y="300" as="sourcePoint" />
            <mxPoint x="450" y="390" as="targetPoint" />
          </mxGeometry>
        </mxCell>
        <mxCell id="DycGgh1v0Zbwr9p_19RP-14" value="" style="endArrow=classic;html=1;rounded=0;entryX=0;entryY=0.5;entryDx=0;entryDy=0;" edge="1" parent="1" target="DycGgh1v0Zbwr9p_19RP-5">
          <mxGeometry width="50" height="50" relative="1" as="geometry">
            <mxPoint x="180" y="300" as="sourcePoint" />
            <mxPoint x="450" y="390" as="targetPoint" />
          </mxGeometry>
        </mxCell>
        <mxCell id="DycGgh1v0Zbwr9p_19RP-15" value="" style="endArrow=classic;html=1;rounded=0;entryX=0;entryY=0.5;entryDx=0;entryDy=0;" edge="1" parent="1" target="DycGgh1v0Zbwr9p_19RP-7">
          <mxGeometry width="50" height="50" relative="1" as="geometry">
            <mxPoint x="180" y="300" as="sourcePoint" />
            <mxPoint x="450" y="390" as="targetPoint" />
          </mxGeometry>
        </mxCell>
        <mxCell id="DycGgh1v0Zbwr9p_19RP-16" value="" style="endArrow=classic;html=1;rounded=0;entryX=0;entryY=0.5;entryDx=0;entryDy=0;" edge="1" parent="1" target="DycGgh1v0Zbwr9p_19RP-9">
          <mxGeometry width="50" height="50" relative="1" as="geometry">
            <mxPoint x="180" y="300" as="sourcePoint" />
            <mxPoint x="450" y="390" as="targetPoint" />
          </mxGeometry>
        </mxCell>
        <mxCell id="DycGgh1v0Zbwr9p_19RP-17" value="" style="endArrow=classic;html=1;rounded=0;entryX=0;entryY=0.5;entryDx=0;entryDy=0;" edge="1" parent="1" target="DycGgh1v0Zbwr9p_19RP-10">
          <mxGeometry width="50" height="50" relative="1" as="geometry">
            <mxPoint x="180" y="300" as="sourcePoint" />
            <mxPoint x="450" y="390" as="targetPoint" />
          </mxGeometry>
        </mxCell>
        <mxCell id="DycGgh1v0Zbwr9p_19RP-18" value="" style="endArrow=classic;html=1;rounded=0;exitX=1;exitY=0.5;exitDx=0;exitDy=0;" edge="1" parent="1" source="DycGgh1v0Zbwr9p_19RP-10">
          <mxGeometry width="50" height="50" relative="1" as="geometry">
            <mxPoint x="400" y="440" as="sourcePoint" />
            <mxPoint x="540" y="300" as="targetPoint" />
          </mxGeometry>
        </mxCell>
        <mxCell id="DycGgh1v0Zbwr9p_19RP-19" value="" style="endArrow=classic;html=1;rounded=0;exitX=1;exitY=0.5;exitDx=0;exitDy=0;" edge="1" parent="1" source="DycGgh1v0Zbwr9p_19RP-9">
          <mxGeometry width="50" height="50" relative="1" as="geometry">
            <mxPoint x="400" y="440" as="sourcePoint" />
            <mxPoint x="540" y="300" as="targetPoint" />
          </mxGeometry>
        </mxCell>
        <mxCell id="DycGgh1v0Zbwr9p_19RP-20" value="" style="endArrow=classic;html=1;rounded=0;exitX=1;exitY=0.5;exitDx=0;exitDy=0;" edge="1" parent="1" source="DycGgh1v0Zbwr9p_19RP-7">
          <mxGeometry width="50" height="50" relative="1" as="geometry">
            <mxPoint x="400" y="360" as="sourcePoint" />
            <mxPoint x="540" y="300" as="targetPoint" />
          </mxGeometry>
        </mxCell>
        <mxCell id="DycGgh1v0Zbwr9p_19RP-22" value="&lt;font style=&quot;font-size: 14px;&quot;&gt;月球轨道干涉阵列综合孔径成像和频谱数据处理系统&lt;/font&gt;" style="text;html=1;align=center;verticalAlign=middle;whiteSpace=wrap;rounded=0;" vertex="1" parent="1">
          <mxGeometry x="280" y="70" width="350" height="50" as="geometry" />
        </mxCell>
        <mxCell id="DycGgh1v0Zbwr9p_19RP-24" value="&lt;span style=&quot;text-align: start; font-family: DengXian;&quot; lang=&quot;ZH-CN&quot;&gt;&lt;font style=&quot;font-size: 14px;&quot;&gt;数据管理与用户&lt;/font&gt;&lt;/span&gt;&lt;div&gt;&lt;span style=&quot;text-align: start; font-family: DengXian;&quot; lang=&quot;ZH-CN&quot;&gt;&lt;font size=&quot;3&quot; style=&quot;&quot;&gt;服务分系统&lt;/font&gt;&lt;/span&gt;&lt;/div&gt;" style="rounded=1;whiteSpace=wrap;html=1;fillColor=#ffe6cc;strokeColor=#d79b00;" vertex="1" parent="1">
          <mxGeometry x="540" y="265" width="120" height="60" as="geometry" />
        </mxCell>
      </root>
    </mxGraphModel>
  </diagram>
</mxfile>
